<?xml version="1.0" encoding="utf-8"?>
<!-- Generator: Adobe Illustrator 27.2.0, SVG Export Plug-In . SVG Version: 6.00 Build 0)  -->
<svg version="1.1" id="Layer_1" xmlns="http://www.w3.org/2000/svg" xmlns:xlink="http://www.w3.org/1999/xlink" x="0px" y="0px"
	 viewBox="0 0 200 40.5" style="enable-background:new 0 0 200 40.5;" xml:space="preserve">
<style type="text/css">
	.st0{fill:#999999;}
	.st1{fill:#E7E7E7;}
</style>
<path class="st0" d="M47.7,40.5l4.6-15.2L40,16.5h15.2l4.8-16l4.8,16H80l-12.3,8.8l4.7,15.2L60,31.1L47.7,40.5z"/>
<path class="st0" d="M87.7,40.5l4.7-15.2L80,16.5h15.2l4.8-16l4.8,16H120l-12.3,8.8l4.7,15.2L100,31.1L87.7,40.5z"/>
<path class="st0" d="M127.7,40.5l4.7-15.2L120,16.5h15.2l4.8-16l4.8,16H160l-12.3,8.8l4.7,15.2L140,31.1L127.7,40.5z"/>
<path class="st0" d="M167.6,40.5l4.7-15.2L160,16.5h15.2l4.8-16l4.8,16H200l-12.3,8.8l4.7,15.2L180,31.1L167.6,40.5z"/>
<polygon class="st1" points="192.3,40.5 187.7,25.3 200,16.5 184.8,16.5 180,0.5 180,31.1 "/>
<path class="st0" d="M7.6,40.5l4.7-15.2L0,16.4l15.2,0l4.8-16l4.8,16l15.2,0l-12.3,8.8l4.6,15.2L20,31.1L7.6,40.5z"/>
</svg>
