<?xml version="1.0" encoding="utf-8"?>
<!-- Generator: Adobe Illustrator 27.2.0, SVG Export Plug-In . SVG Version: 6.00 Build 0)  -->
<svg version="1.1" id="Layer_1" xmlns="http://www.w3.org/2000/svg" xmlns:xlink="http://www.w3.org/1999/xlink" x="0px" y="0px"
	 viewBox="0 0 44 32" style="enable-background:new 0 0 44 32;" xml:space="preserve">
<path d="M9.2,32c-1.6,0-3-0.6-4.2-1.7c-1.1-1.2-1.7-2.5-1.7-4.2H0V3c0-0.8,0.3-1.5,0.9-2.1C1.5,0.3,2.2,0,3,0h29v8.4h5.2l6.8,9V26
	h-3.5c0,1.6-0.6,3-1.7,4.2c-1.2,1.2-2.5,1.7-4.2,1.7c-1.6,0-3-0.6-4.2-1.7c-1.1-1.2-1.7-2.5-1.7-4.2H15.1c0,1.6-0.6,3-1.7,4.2
	C12.2,31.4,10.8,32,9.2,32z M9.2,29c0.8,0,1.5-0.3,2.1-0.8s0.9-1.2,0.9-2c0-0.8-0.3-1.5-0.9-2c-0.6-0.6-1.2-0.9-2.1-0.9
	c-0.8,0-1.5,0.3-2.1,0.9c-0.6,0.6-0.9,1.2-0.9,2s0.3,1.5,0.9,2S8.4,29,9.2,29z M3,23h1.1c0.6-0.9,1.3-1.6,2.2-2.1s1.8-0.8,2.9-0.8
	s2,0.3,2.9,0.8c0.9,0.5,1.6,1.3,2.2,2.1H29V3H3V23z M34.5,29c0.8,0,1.5-0.3,2-0.8s0.8-1.2,0.8-2s-0.3-1.5-0.8-2
	c-0.6-0.6-1.2-0.9-2-0.9c-0.8,0-1.5,0.3-2,0.9c-0.6,0.6-0.8,1.2-0.8,2s0.3,1.5,0.8,2S33.8,29,34.5,29z M32,18.8h9.3l-5.5-7.4H32
	V18.8z"/>
</svg>
