<?xml version="1.0" encoding="utf-8"?>
<!-- Generator: Adobe Illustrator 27.2.0, SVG Export Plug-In . SVG Version: 6.00 Build 0)  -->
<svg version="1.1" id="Layer_1" xmlns="http://www.w3.org/2000/svg" xmlns:xlink="http://www.w3.org/1999/xlink" x="0px" y="0px"
	 viewBox="0 0 40 40" style="enable-background:new 0 0 40 40;" xml:space="preserve">
<path d="M27.3,17.4c0.8,0,1.4-0.3,1.9-0.8s0.8-1.2,0.8-1.9c0-0.8-0.3-1.4-0.8-1.9S28.1,12,27.3,12c-0.7,0-1.4,0.3-1.9,0.8
	s-0.8,1.2-0.8,1.9c0,0.7,0.3,1.4,0.8,1.9S26.6,17.4,27.3,17.4z M12.7,17.4c0.8,0,1.4-0.3,1.9-0.8s0.8-1.2,0.8-1.9
	c0-0.8-0.3-1.4-0.8-1.9S13.5,12,12.7,12c-0.7,0-1.4,0.3-1.9,0.8c-0.5,0.5-0.8,1.2-0.8,1.9c0,0.7,0.3,1.4,0.8,1.9S12,17.4,12.7,17.4z
	 M20,31c2.2,0,4.2-0.6,6.1-1.8c1.8-1.2,3.2-2.8,4-4.8h-2.6c-0.8,1.3-1.8,2.4-3.1,3.1c-1.3,0.7-2.8,1.1-4.3,1.1c-1.6,0-3-0.4-4.4-1
	c-1.4-0.7-2.4-1.7-3.1-3.1H9.9c0.9,2,2.2,3.6,4.1,4.8C15.8,30.4,17.8,31,20,31z M20,40c-2.8,0-5.4-0.5-7.8-1.6
	c-2.4-1-4.5-2.5-6.4-4.3c-1.8-1.8-3.2-3.9-4.3-6.4S0,22.8,0,20s0.5-5.4,1.6-7.8s2.5-4.6,4.3-6.4s3.9-3.2,6.4-4.3S17.2,0,20,0
	s5.4,0.5,7.8,1.6s4.6,2.5,6.3,4.3c1.8,1.8,3.2,3.9,4.3,6.4c1.1,2.4,1.6,5,1.6,7.8s-0.5,5.4-1.6,7.8c-1,2.4-2.5,4.6-4.3,6.3
	c-1.8,1.8-3.9,3.2-6.4,4.3C25.4,39.5,22.8,40,20,40z M20,37c4.7,0,8.8-1.6,12-5c3.3-3.3,5-7.3,5-12s-1.6-8.8-5-12.1
	C28.8,4.7,24.7,3,20,3S11.2,4.7,7.9,7.9S3,15.3,3,20s1.7,8.8,4.9,12C11.2,35.4,15.3,37,20,37z"/>
</svg>
