<?xml version="1.0" encoding="utf-8"?>
<!-- Generator: Adobe Illustrator 27.2.0, SVG Export Plug-In . SVG Version: 6.00 Build 0)  -->
<svg version="1.1" xmlns="http://www.w3.org/2000/svg" xmlns:xlink="http://www.w3.org/1999/xlink" x="0px" y="0px"
	 viewBox="0 0 496.8 474" style="enable-background:new 0 0 496.8 474;" xml:space="preserve">
<style type="text/css">
	.st0{display:none;}
	.st1{display:inline;}
	
		.st2{clip-path:url(#SVGID_00000101821871755277960040000012891190684105412738_);fill:url(#SVGID_00000096762902664487847770000003442096666065309622_);}
	
		.st3{clip-path:url(#SVGID_00000088091763912489972530000012946570887506416524_);fill:url(#SVGID_00000148659842134352912130000008829132859688780966_);}
	
		.st4{clip-path:url(#SVGID_00000069370076939982702110000007764364607780952964_);fill:url(#SVGID_00000023963407844100713510000005657700346557558927_);}
</style>
<g id="Layer_2_00000022523201030458555730000009485997292229863354_" class="st0">
	<g class="st1">
		<g>
			<g>
				<defs>
					<path id="SVGID_1_" d="M299,395.3v78.4h47.3l1.4-11.7h-35.9v-66.7H299z M358.1,473.7h12.8v-78.4h-12.8V473.7z M389.1,395.3
						v78.4h12.8v-34.1h30.7v-11h-30.7v-22h33.3l-1.3-11.3H389.1z M449.1,395.3v78.4h46.5l1.2-11.3h-34.9v-23.3h32V428h-32v-21.5
						h34.9l-1.2-11.3L449.1,395.3L449.1,395.3z M0,318.1V474h266v-43.6H150.3v-104h-37.2v104.1H38.3V317.3L0,318.1z M364.6,294.5
						l-24.3,49h-0.2l-24.5-49H299V373h12.6l-0.1-61.9h0.2l27.4,53.7h2l27.4-53.7h0.2l-0.1,61.9h12.6v-78.4h-16.6V294.5z
						 M443.4,294.5l-10.7,20.2c-2.7,5.3-5.5,10.4-8.3,15.6h-0.3c-2.8-5.2-5.7-10.3-8.4-15.7l-10.7-20h-14.7l27.6,46.6V373h12.8
						v-31.8l27.6-46.6h-14.9V294.5z M225.2,100.4v124.3H0v43.6h266V100.4H225.2z M342,39.1h30.8c38.7,0,56.3,12.8,56.3,43.6
						c0,29.7-17.7,42.8-56.3,42.8H342V39.1z M298.1,2.3v266h44V162h39.4c57.9,0,90.9-28.9,90.9-79.3c0-52.2-31.9-80.4-93.5-80.4
						C378.9,2.3,298.1,2.3,298.1,2.3z M218.8,25.2c0,15,11.6,25.5,27,25.5c15,0,26.7-10.5,26.7-25.2c0-14.6-11.6-25.5-26.7-25.5
						C230.4,0,218.8,10.9,218.8,25.2"/>
				</defs>
				<clipPath id="SVGID_00000057845100296615830960000007095811311597214599_">
					<use xlink:href="#SVGID_1_"  style="overflow:visible;"/>
				</clipPath>
				
					<linearGradient id="SVGID_00000067214046900922052500000017382496275273593250_" gradientUnits="userSpaceOnUse" x1="-175.833" y1="546.1967" x2="-171.5385" y2="546.1967" gradientTransform="matrix(115.6814 0 0 -115.6814 20340.6094 63421.7422)">
					<stop  offset="0" style="stop-color:#D6BB60"/>
					<stop  offset="5.494510e-03" style="stop-color:#D6BB60"/>
					<stop  offset="2.585850e-02" style="stop-color:#DCC367"/>
					<stop  offset="9.372011e-02" style="stop-color:#EBD77A"/>
					<stop  offset="0.1607" style="stop-color:#F5E485"/>
					<stop  offset="0.2253" style="stop-color:#F8E889"/>
					<stop  offset="0.4564" style="stop-color:#E5C466"/>
					<stop  offset="0.5062" style="stop-color:#DBBA5C"/>
					<stop  offset="0.6706" style="stop-color:#BE9C40"/>
					<stop  offset="0.7641" style="stop-color:#B39135"/>
					<stop  offset="0.8286" style="stop-color:#B79539"/>
					<stop  offset="0.8966" style="stop-color:#C4A245"/>
					<stop  offset="0.966" style="stop-color:#D8B759"/>
					<stop  offset="1" style="stop-color:#E5C466"/>
				</linearGradient>
				
					<rect style="clip-path:url(#SVGID_00000057845100296615830960000007095811311597214599_);fill:url(#SVGID_00000067214046900922052500000017382496275273593250_);" width="496.8" height="473.9"/>
			</g>
		</g>
	</g>
</g>
<g id="Layer_3">
	<g>
		<defs>
			<path id="SVGID_00000062914445086227661150000017303226217469239996_" d="M277.8,382.3v72h43.4l1.3-10.8h-33v-61.2H277.8z
				 M332.1,454.4h11.8v-72h-11.8V454.4z M360.6,382.3v72h11.8V423h28.2V413h-28.2v-20.2H403l-1.2-10.4H360.6z M415.6,382.3v72h42.7
				l1.1-10.4h-32v-21.4h29.4v-10.2h-29.4v-19.7h32l-1.1-10.4H415.6z M3.1,311.5v143.2h244.3v-40H141.2v-95.6H107v95.6H38.3V310.8
				L3.1,311.5z M338,289.8l-22.3,45h-0.2l-22.5-45h-15.3v72h11.6l-0.1-56.9h0.2l25.1,49.3h1.8l25.1-49.3h0.2l-0.1,56.9h11.6v-72H338
				z M410.4,289.8l-9.9,18.5c-2.4,4.9-5.1,9.6-7.6,14.3h-0.3c-2.5-4.8-5.2-9.5-7.7-14.4l-9.9-18.4h-13.5l25.3,42.8v29.2h11.8v-29.2
				l25.3-42.8H410.4z M210,111.5v114.2H3.1v40h244.3V111.5H210z M317.3,55.2h28.3c35.5,0,51.8,11.7,51.8,40
				c0,27.3-16.2,39.3-51.8,39.3h-28.3V55.2z M276.9,21.4v244.3h40.4v-97.7h36.2c53.1,0,83.5-26.6,83.5-72.8
				c0-48-29.3-73.8-85.9-73.8H276.9z M229,19.3c-14.1,0-24.8,10-24.8,23.1c0,13.8,10.7,23.5,24.8,23.5c13.8,0,24.5-9.7,24.5-23.1
				C253.5,29.4,242.8,19.3,229,19.3z"/>
		</defs>
		<clipPath id="SVGID_00000095336536164531139770000017889289359518023044_">
			<use xlink:href="#SVGID_00000062914445086227661150000017303226217469239996_"  style="overflow:visible;"/>
		</clipPath>
		
			<linearGradient id="SVGID_00000119812170605430079380000018351916364269275823_" gradientUnits="userSpaceOnUse" x1="-56.5924" y1="636.6902" x2="-53.5003" y2="636.6902" gradientTransform="matrix(147.5717 0 0 -147.5717 8354.585 94194.4375)">
			<stop  offset="0" style="stop-color:#D6BB60"/>
			<stop  offset="5.494510e-03" style="stop-color:#D6BB60"/>
			<stop  offset="2.544693e-02" style="stop-color:#DCC367"/>
			<stop  offset="9.364427e-02" style="stop-color:#ECD77A"/>
			<stop  offset="0.1608" style="stop-color:#F6E485"/>
			<stop  offset="0.2253" style="stop-color:#F9E889"/>
			<stop  offset="0.4564" style="stop-color:#E5C465"/>
			<stop  offset="0.5062" style="stop-color:#DBBA5B"/>
			<stop  offset="0.6706" style="stop-color:#BE9C3F"/>
			<stop  offset="0.7641" style="stop-color:#B39135"/>
			<stop  offset="0.8286" style="stop-color:#B79539"/>
			<stop  offset="0.8967" style="stop-color:#C4A245"/>
			<stop  offset="0.966" style="stop-color:#D8B759"/>
			<stop  offset="1" style="stop-color:#E5C465"/>
		</linearGradient>
		
			<rect x="3.1" y="19.3" style="clip-path:url(#SVGID_00000095336536164531139770000017889289359518023044_);fill:url(#SVGID_00000119812170605430079380000018351916364269275823_);" width="456.3" height="435.3"/>
	</g>
	<g>
		<defs>
			<path id="SVGID_00000077315561501601057120000016195526404468747433_" d="M446.9,21.2v2.6h8.9v21.4h3V23.8h8.9v-2.6H446.9z
				 M493.4,21.2l-2.9,4.1l-6.9,9.6l-6.9-9.6l-2.9-4.1h-2.6v24h3v-19l2.3,3.5l7.1,9.9l7-9.9c0.9-1.3,1.7-2.5,2.4-3.5v19h3v-24H493.4z
				"/>
		</defs>
		<clipPath id="SVGID_00000021089366840963293440000014545211375719472288_">
			<use xlink:href="#SVGID_00000077315561501601057120000016195526404468747433_"  style="overflow:visible;"/>
		</clipPath>
		
			<linearGradient id="SVGID_00000143582290493972417220000000137533433796049557_" gradientUnits="userSpaceOnUse" x1="-34.3156" y1="663.4798" x2="-31.2235" y2="663.4798" gradientTransform="matrix(15.8879 0 0 -15.8879 992.1298 10574.5186)">
			<stop  offset="0" style="stop-color:#B39135"/>
			<stop  offset="0.2062" style="stop-color:#B39135"/>
			<stop  offset="0.9864" style="stop-color:#B39135"/>
			<stop  offset="1" style="stop-color:#B39135"/>
		</linearGradient>
		
			<rect x="446.9" y="21.2" style="clip-path:url(#SVGID_00000021089366840963293440000014545211375719472288_);fill:url(#SVGID_00000143582290493972417220000000137533433796049557_);" width="49.1" height="24"/>
	</g>
</g>
</svg>
