<?xml version="1.0" encoding="utf-8"?>
<!-- Generator: Adobe Illustrator 27.1.1, SVG Export Plug-In . SVG Version: 6.00 Build 0)  -->
<svg version="1.1" id="Layer_1" xmlns="http://www.w3.org/2000/svg" xmlns:xlink="http://www.w3.org/1999/xlink" x="0px" y="0px"
	 viewBox="0 0 500 500" style="enable-background:new 0 0 500 500;" xml:space="preserve">
<path d="M433.7,406.9h-44.5v77.8H402v-33.8h30.4V440H402v-21.9H435L433.7,406.9z M430.3,384.8v-31.5l27.4-46.3H443l-10.7,20
	c-2.6,5.3-5.5,10.3-8.2,15.5h-0.3c-2.7-5.2-5.6-10.2-8.3-15.6L404.8,307h-14.6l27.4,46.3v31.5H430.3z M371.2,406.9h-12.7v77.8h12.7
	V406.9z M312.5,406.9h-12.7v77.8h46.9l1.4-11.6h-35.6V406.9z M316.3,307h-16.5v77.8h12.5l-0.1-61.4h0.2l27.1,53.3h2l27.1-53.3h0.2
	l-0.1,61.4h12.5V307h-16.5l-24.1,48.6h-0.2L316.3,307z M41.2,329.6l-38,0.7V485H267v-43.2H152.2V338.5h-36.9v103.2H41.2V329.6z
	 M226.6,237.7H3.2v43.2H267V114.3h-40.5V237.7z M273.5,40.2c0-14.5-11.6-25.3-26.5-25.3c-15.3,0-26.8,10.8-26.8,25
	c0,14.9,11.6,25.3,26.8,25.3C262,65.2,273.5,54.7,273.5,40.2 M428.9,96.8c0,29.4-17.5,42.5-55.9,42.5h-30.6V53.6H373
	C411.4,53.6,428.9,66.3,428.9,96.8 M471.8,96.8c0-51.8-31.7-79.8-92.8-79.8h-80.1v263.9h43.6V175.5h39.1
	C439,175.5,471.8,146.8,471.8,96.8 M461.4,418.1H496l-1.2-11.2h-46.1v77.8h46.1l1.2-11.2h-34.6v-23.1h31.8v-11h-31.8V418.1z"/>
</svg>
