<?xml version="1.0" standalone="no"?>
<!DOCTYPE svg PUBLIC "-//W3C//DTD SVG 20010904//EN"
 "http://www.w3.org/TR/2001/REC-SVG-20010904/DTD/svg10.dtd">
<svg version="1.0" xmlns="http://www.w3.org/2000/svg"
 width="500.000000pt" height="500.000000pt" viewBox="0 0 500.000000 500.000000"
 preserveAspectRatio="xMidYMid meet">
<metadata>
Created by potrace 1.14, written by Peter Selinger 2001-2017
</metadata>
<g transform="translate(0.000000,500.000000) scale(0.100000,-0.100000)"
fill="#000000" stroke="none">
<path d="M2400 4733 c-116 -39 -174 -113 -174 -223 -1 -141 99 -233 252 -232
132 1 231 92 238 216 5 91 -47 179 -131 222 -29 16 -155 27 -185 17z"/>
<path d="M2958 4713 c-3 -4 -4 -552 -4 -1218 l1 -1210 203 -1 202 0 1 30 c0
17 0 236 0 487 l0 455 232 1 c273 1 340 7 471 45 278 80 460 285 492 553 10
83 11 216 2 221 -4 3 -5 10 -2 17 4 11 0 32 -22 137 -17 83 -106 226 -183 295
-74 66 -227 143 -317 160 -16 2 -40 7 -54 10 -14 3 -41 8 -60 11 -54 10 -958
16 -962 7z m805 -337 c48 -4 97 -10 110 -15 12 -5 42 -15 65 -22 134 -40 219
-165 226 -331 9 -235 -113 -375 -354 -406 -30 -4 -143 -7 -250 -7 l-195 0 -2
392 -1 392 21 3 c34 5 282 1 380 -6z"/>
<path d="M2313 3822 l-33 -3 0 -568 0 -567 -1037 0 -1038 0 0 -199 0 -200
1225 0 1225 0 2 768 1 767 -26 1 c-90 3 -292 4 -319 1z"/>
<path d="M2965 2040 c-1 -3 -2 -164 -1 -359 l1 -355 55 0 55 -1 0 278 c0 152
2 277 5 277 5 0 46 -76 181 -342 39 -76 76 -138 82 -138 7 1 26 29 43 63 107
216 210 416 214 417 3 0 5 -125 5 -277 l0 -278 58 0 c40 -1 57 3 58 12 0 7 1
162 1 343 0 182 -1 338 -1 348 -1 15 -10 18 -76 16 -41 0 -77 -3 -79 -5 -2 -2
-52 -102 -112 -221 -59 -120 -110 -215 -113 -212 -4 3 -55 103 -116 222 l-110
217 -73 0 c-41 0 -75 -2 -77 -5z"/>
<path d="M3814 2039 c-2 -4 52 -101 121 -215 l125 -209 0 -145 0 -146 58 1 57
0 2 146 1 145 121 202 c67 111 122 207 124 214 1 9 -17 12 -62 12 l-65 0 -85
-162 c-48 -89 -88 -162 -91 -162 -3 0 -18 24 -33 53 -15 28 -54 101 -86 162
l-59 109 -62 1 c-34 0 -64 -3 -66 -6z"/>
<path d="M308 1832 l-108 -3 0 -714 0 -715 1229 0 1228 0 -1 198 -1 197 -470
2 c-259 1 -498 3 -532 3 l-63 0 0 475 0 475 -22 1 c-23 0 -251 0 -298 -1 l-25
0 0 -475 0 -475 -162 0 c-90 -1 -219 -1 -288 -1 -69 0 -151 0 -183 1 l-58 0 1
511 c0 281 -2 514 -5 518 -5 7 -58 8 -242 3z"/>
<path d="M2989 1121 l-26 -6 0 -355 0 -356 218 -1 c159 -1 219 2 220 11 0 6 2
30 5 54 l6 42 -165 0 -164 0 0 300 c0 165 -2 302 -5 305 -8 8 -61 11 -89 6z"/>
<path d="M3518 1119 c-8 -5 -10 -145 -8 -605 l0 -112 59 1 60 1 -1 358 c0 197
-3 358 -7 359 -38 4 -95 3 -103 -2z"/>
<path d="M3835 1120 l-40 -5 0 -355 0 -355 60 0 60 0 -1 150 c0 83 3 152 7
155 4 3 67 5 139 5 125 -1 131 0 136 20 3 12 3 34 1 51 l-4 29 -131 1 c-73 1
-136 2 -140 3 -6 1 -9 159 -3 193 0 4 61 6 134 6 173 0 179 0 173 11 -3 5 -8
26 -11 46 -2 21 -6 40 -9 42 -6 7 -323 9 -371 3z"/>
<path d="M4378 1122 l-28 -3 0 -358 0 -358 215 0 c191 0 215 2 215 16 1 9 3
32 6 52 l5 36 -158 -1 -158 -1 -3 107 -3 107 123 0 c68 0 134 0 148 1 24 0 26
3 25 50 0 58 20 52 -177 51 l-118 0 0 99 0 98 160 -1 160 -2 -6 50 c-3 27 -7
51 -9 54 -5 4 -360 7 -397 3z"/>
</g>
</svg>
