<?xml version="1.0" encoding="utf-8"?>
<!-- Generator: Adobe Illustrator 27.0.1, SVG Export Plug-In . SVG Version: 6.00 Build 0)  -->
<svg version="1.1" id="Layer_1" xmlns="http://www.w3.org/2000/svg" xmlns:xlink="http://www.w3.org/1999/xlink" x="0px" y="0px"
	 viewBox="0 0 16 25.1" style="enable-background:new 0 0 16 25.1;" xml:space="preserve">
<style type="text/css">
	.st0{fill:none;stroke:#a490be;stroke-width:0.643;stroke-linecap:round;}
</style>
<path class="st0" d="M4.6,9c0,0,2.8,0.1,3.3,1.1"/>
<path class="st0" d="M11.6,13.3c0,0-3,0.3-3.7,1.7"/>
<path class="st0" d="M4.2,15.4c0,0,3,0.3,3.7,1.7"/>
<path class="st0" d="M10.6,7.4c0,0-2.4,0.7-2.7,1.8"/>
<path class="st0" d="M8.3,21c4.1-0.1,7.4-3.5,7.4-7.7S8.5,0.8,8.2,0.4c-0.1-0.1-0.3-0.1-0.4,0C7.5,0.8,0.3,9.2,0.3,13.3
	s3.3,7.5,7.4,7.7"/>
<line class="st0" x1="8" y1="5.7" x2="8" y2="24.8"/>
</svg>
