<?xml version="1.0" encoding="utf-8"?>
<!-- Generator: Adobe Illustrator 27.0.1, SVG Export Plug-In . SVG Version: 6.00 Build 0)  -->
<svg version="1.1" id="Layer_1" xmlns="http://www.w3.org/2000/svg" xmlns:xlink="http://www.w3.org/1999/xlink" x="0px" y="0px"
	 viewBox="0 0 15 25.9" style="enable-background:new 0 0 15 25.9;" xml:space="preserve">
<style type="text/css">
	.st0{fill:none;stroke:#a490be;stroke-width:0.643;}
	.st1{fill:none;stroke:#a490be;stroke-width:0.643;stroke-linecap:round;}
</style>
<path class="st0" d="M7.3,16.2c0,0,1-5.5-6-5C1.3,11.2,1.6,16.2,7.3,16.2z"/>
<path class="st0" d="M7.3,8.9c0,0,1.1-6.1-6.7-5.6C0.6,3.4,0.9,8.9,7.3,8.9z"/>
<path class="st0" d="M7.3,22.8c0,0,0.9-5-5.5-4.6C1.9,18.3,2.1,22.8,7.3,22.8z"/>
<path class="st0" d="M7.6,16.2c0,0-1-5.5,6-5C13.6,11.2,13.4,16.2,7.6,16.2z"/>
<path class="st0" d="M7.7,8.9c0,0-1.1-6.1,6.7-5.6C14.3,3.4,14,8.9,7.7,8.9z"/>
<path class="st0" d="M7.6,22.8c0,0-0.9-5,5.5-4.6C13.1,18.3,12.9,22.8,7.6,22.8z"/>
<line class="st1" x1="7.5" y1="0.5" x2="7.5" y2="11.6"/>
<line class="st1" x1="7.5" y1="14.6" x2="7.5" y2="18.7"/>
<line class="st1" x1="7.5" y1="21.3" x2="7.5" y2="25.4"/>
<line class="st1" x1="14.4" y1="2.3" x2="14.4" y2="3.2"/>
<line class="st1" x1="0.6" y1="2.3" x2="0.6" y2="3.2"/>
<line class="st1" x1="13.1" y1="17.7" x2="13.1" y2="18"/>
<line class="st1" x1="1.9" y1="17.7" x2="1.9" y2="18"/>
</svg>
