<?xml version="1.0" encoding="utf-8"?>
<!-- Generator: Adobe Illustrator 27.0.1, SVG Export Plug-In . SVG Version: 6.00 Build 0)  -->
<svg version="1.1" id="Layer_1" xmlns="http://www.w3.org/2000/svg" xmlns:xlink="http://www.w3.org/1999/xlink" x="0px" y="0px"
	 viewBox="0 0 14.4 25.6" style="enable-background:new 0 0 14.4 25.6;" xml:space="preserve">
<style type="text/css">
	.st0{fill:none;stroke:#a490be;stroke-width:0.643;stroke-linecap:round;stroke-linejoin:round;stroke-miterlimit:10;}
</style>
<path class="st0" d="M7.2,9.5c-1.8,0-3.3,2.3-3.3,5.1s1.5,5.1,3.3,5.1s3.3-2.3,3.3-5.1S9,9.5,7.2,9.5z M14,17.5c0,0.3,0,0.6-0.1,0.9
	c-0.5,4.7-3.8,6.8-6.8,6.8c-3,0-6.3-2.1-6.8-6.8c0-0.3-0.1-0.6-0.1-0.9c-0.1-2.9,0.5-4.3,1.1-5.8c0.5-1.3,1.1-2.6,1.3-5
	c0.1-1.1,0.4-2,0.9-2.8c0.8-1.4,2.2-2.2,3.7-2.2s2.8,0.8,3.7,2.2c0.5,0.8,0.8,1.8,0.9,2.8c0.2,2.4,0.7,3.7,1.3,5
	C13.6,13.2,14.1,14.6,14,17.5z"/>
<line class="st0" x1="7.2" y1="0.3" x2="7.2" y2="1.6"/>
</svg>
