<?xml version="1.0" encoding="utf-8"?>
<!-- Generator: Adobe Illustrator 27.0.1, SVG Export Plug-In . SVG Version: 6.00 Build 0)  -->
<svg version="1.1" id="Layer_1" xmlns="http://www.w3.org/2000/svg" xmlns:xlink="http://www.w3.org/1999/xlink" x="0px" y="0px"
	 viewBox="0 0 9.8 25.2" style="enable-background:new 0 0 9.8 25.2;" xml:space="preserve">
<style type="text/css">
	.st0{fill:none;stroke:#a490be;stroke-width:0.643;stroke-linecap:round;stroke-linejoin:round;stroke-miterlimit:10;}
</style>
<path class="st0" d="M6.7,12.6h2.8 M0.8,11.7h4.6 M1.6,15.5h3.3 M8.3,9.8h-4 M6.7,21h1.6 M1.5,21h3 M6.7,23.6H0.3 M6.4,4.2h1.9
	 M1.2,3.2h2.3 M2.7,1.6h6.8 M0.3,0.3v1.3c0,0.3,0,2.7,5.1,5.9c0,0,1.6,0.9,2.9,2.2c1.6,1.6,1.6,4.1,0,5.6c-1.3,1.3-2.9,2.3-2.9,2.3
	c-5,3.2-5.1,5.6-5.1,5.9v1.3 M9.5,0.3v1.3c0,0.3,0,2.7-5.1,5.9c0,0-1.6,0.9-2.9,2.2c-1.6,1.6-1.6,4.1,0,5.6c1.3,1.3,2.9,2.3,2.9,2.3
	c5,3.2,5.1,5.6,5.1,5.9v1.3"/>
<line class="st0" x1="0.8" y1="13.7" x2="2.7" y2="13.7"/>
</svg>
