<?xml version="1.0" encoding="utf-8"?>
<!-- Generator: Adobe Illustrator 27.0.1, SVG Export Plug-In . SVG Version: 6.00 Build 0)  -->
<svg version="1.1" id="Layer_1" xmlns="http://www.w3.org/2000/svg" xmlns:xlink="http://www.w3.org/1999/xlink" x="0px" y="0px"
	 viewBox="0 0 6.6 26.7" style="enable-background:new 0 0 6.6 26.7;" xml:space="preserve">
<style type="text/css">
	.st0{fill:none;stroke:#a490be;stroke-width:0.643;stroke-linecap:round;}
</style>
<path class="st0" d="M1.2,5.1h1 M3.9,15.1v-1 M1.4,10.6h3.7 M4.7,24.7c0,0.9-0.6,1.7-1.4,1.7c-0.8,0-1.4-0.8-1.4-1.7
	s1.4-2.8,1.4-2.8S4.7,23.7,4.7,24.7z M5.1,2.8v2.3h0.3c0.4,0,0.8,0.5,0.8,1.1S5.9,7.2,5.5,7.2H5.1H1.4H1.1c-0.4,0-0.8-0.5-0.8-1.1
	s0.4-1.1,0.8-1.1h0.3V2.8c0-1.4,0.8-2.5,1.8-2.5C4.3,0.3,5.1,1.4,5.1,2.8z M1.4,7.2v9.3c0.6,0,1.1,0.4,1.1,1.2V19h1.6v-1.2
	c0-0.8,0.5-1.2,1.1-1.2V7.2"/>
</svg>
