<?xml version="1.0" encoding="utf-8"?>
<!-- Generator: Adobe Illustrator 27.2.0, SVG Export Plug-In . SVG Version: 6.00 Build 0)  -->
<svg version="1.1" id="Layer_1" xmlns="http://www.w3.org/2000/svg" xmlns:xlink="http://www.w3.org/1999/xlink" x="0px" y="0px"
	 viewBox="0 0 41.4 97.9" style="enable-background:new 0 0 41.4 97.9;" xml:space="preserve">
<style type="text/css">
	.st0{fill:#FFFFFF;}
</style>
<g>
	<path class="st0" d="M31,7.7H10.3L1,35.8c-0.7,2.1-1,4.3-1,6.5v49.2c0,3.6,2.9,6.4,6.5,6.4h28.5c3.6,0,6.5-2.9,6.5-6.4V42.2
		c0-2.2-0.4-4.4-1-6.5L31,7.7z M29.2,10.3l8.7,26.3c0.6,1.8,0.9,3.7,0.9,5.7v49.2c0,2.1-1.7,3.9-3.9,3.9H6.5c-2.1,0-3.9-1.7-3.9-3.9
		V42.2c0-1.9,0.3-3.8,0.9-5.7l8.7-26.3H29.2z"/>
	<path class="st0" d="M31,0H10.3C8.9,0,7.8,1.2,7.8,2.6v5.2c0,1.4,1.2,2.6,2.6,2.6H31c1.4,0,2.6-1.2,2.6-2.6V2.6
		C33.6,1.2,32.5,0,31,0 M31,7.7H10.3V2.6H31V7.7z"/>
</g>
</svg>
