<?xml version="1.0" encoding="UTF-8"?><svg id="Layer_1" xmlns="http://www.w3.org/2000/svg" viewBox="0 0 14.3719 25.5187"><path d="m7.0338,15.9641s.979-5.481-6.003-5.024c0,0,.261,5.024,6.003,5.024Z" style="fill:none; stroke:#231f20; stroke-width:.643px;"/><path d="m7.0169,8.7257S8.1049,2.6357.3469,3.1427c0,0,.29,5.583,6.67,5.583Z" style="fill:none; stroke:#231f20; stroke-width:.643px;"/><path d="m7.0475,22.6247s.891-4.988-5.463-4.572c0,0,.238,4.572,5.463,4.572Z" style="fill:none; stroke:#231f20; stroke-width:.643px;"/><path d="m7.3381,15.9641s-.979-5.481,6.003-5.024c0,0-.261,5.024-6.003,5.024Z" style="fill:none; stroke:#231f20; stroke-width:.643px;"/><path d="m7.355,8.7257s-1.088-6.09,6.67-5.583c0,0-.29,5.583-6.67,5.583Z" style="fill:none; stroke:#231f20; stroke-width:.643px;"/><path d="m7.3244,22.6247s-.891-4.988,5.463-4.572c0,0-.238,4.572-5.463,4.572Z" style="fill:none; stroke:#231f20; stroke-width:.643px;"/><line x1="7.186" y1=".3215" x2="7.186" y2="11.3675" style="fill:none; stroke:#231f20; stroke-linecap:round; stroke-width:.643px;"/><line x1="7.186" y1="14.4037" x2="7.186" y2="18.4827" style="fill:none; stroke:#231f20; stroke-linecap:round; stroke-width:.643px;"/><line x1="7.186" y1="21.1182" x2="7.186" y2="25.1972" style="fill:none; stroke:#231f20; stroke-linecap:round; stroke-width:.643px;"/><line x1="14.0504" y1="2.1341" x2="14.0504" y2="2.9401" style="fill:none; stroke:#231f20; stroke-linecap:round; stroke-width:.643px;"/><line x1=".3215" y1="2.1341" x2=".3215" y2="2.9401" style="fill:none; stroke:#231f20; stroke-linecap:round; stroke-width:.643px;"/><line x1="12.799" y1="17.452" x2="12.799" y2="17.807" style="fill:none; stroke:#231f20; stroke-linecap:round; stroke-width:.643px;"/><line x1="1.5729" y1="17.452" x2="1.5729" y2="17.807" style="fill:none; stroke:#231f20; stroke-linecap:round; stroke-width:.643px;"/></svg>