<?xml version="1.0" encoding="UTF-8"?><svg id="Layer_1" xmlns="http://www.w3.org/2000/svg" viewBox="0 0 9.7953 25.234"><path d="m6.6628,12.6175h2.81m-8.707-.883h4.576m-3.766,3.732h3.322m3.381-5.7h-4.012m2.396,11.234h1.625m-6.781,0h3.015m2.151,2.596H.3218M6.4058,4.2325h1.882m-7.091-.994h2.315m-.848-1.601h6.81M.3218.3215v1.334c0,.281.031,2.661,5.08,5.885,0,0,1.569.946,2.877,2.226,1.59,1.557,1.593,4.07.01,5.633-1.31,1.293-2.887,2.284-2.887,2.284C.3528,20.9085.3218,23.2875.3218,23.5685v1.344M9.4738.3215v1.334c0,.281-.032,2.661-5.081,5.885,0,0-1.568.946-2.876,2.226-1.59,1.557-1.5941,4.07-.01,5.633,1.309,1.293,2.886,2.284,2.886,2.284,5.049,3.225,5.081,5.604,5.081,5.885v1.344" style="fill:none; stroke:#231f20; stroke-linecap:round; stroke-linejoin:round; stroke-width:.643px;"/><line x1=".8293" y1="13.742" x2="2.7114" y2="13.742" style="fill:none; stroke:#231f20; stroke-linecap:round; stroke-linejoin:round; stroke-width:.643px;"/></svg>