<?xml version="1.0" encoding="UTF-8"?><svg id="Layer_1" xmlns="http://www.w3.org/2000/svg" viewBox="0 0 14.3756 25.5991"><path d="m7.1878,9.5126c-1.842,0-3.341,2.266-3.341,5.051s1.499,5.05,3.341,5.05,3.341-2.265,3.341-5.05-1.499-5.051-3.341-5.051Zm6.854,7.996c-.011.312-.033.622-.065.922-.503,4.73-3.772,6.847-6.789,6.847S.9018,23.1606.3988,18.4306c-.033-.302-.054-.612-.065-.922-.103-2.944.459-4.319,1.054-5.775.526-1.284,1.068-2.613,1.254-4.987.082-1.06.374-2.009.867-2.819.8391-1.381,2.18-2.174,3.679-2.174s2.84.793,3.679,2.174c.493.81.785,1.759.867,2.819.185,2.374.728,3.703,1.254,4.987.595,1.456,1.157,2.831,1.054,5.775Z" style="fill:none; stroke:#231f20; stroke-linecap:round; stroke-linejoin:round; stroke-width:.643px;"/><line x1="7.1877" y1=".3215" x2="7.1877" y2="1.5785" style="fill:none; stroke:#231f20; stroke-linecap:round; stroke-linejoin:round; stroke-width:.643px;"/></svg>