<?xml version="1.0" encoding="UTF-8"?><svg id="Layer_1" xmlns="http://www.w3.org/2000/svg" viewBox="0 0 6.575 26.685"><path d="m1.2175,5.1045h.978m1.686,9.972v-.977m-2.441-3.54h3.673m-.394,14.109c0,.936-.641,1.695-1.432,1.695s-1.432-.759-1.432-1.695,1.432-2.788,1.432-2.788c0,0,1.432,1.852,1.432,2.788Zm.415-21.85v2.28h.329c.436,0,.79.478.79,1.068s-.354,1.068-.79,1.068H1.1125c-.437,0-.791-.478-.791-1.068s.354-1.068.791-1.068h.328v-2.28C1.4405,1.4395,2.2675.3215,3.2875.3215s1.847,1.118,1.847,2.497ZM1.4405,7.2345v9.27c.587,0,1.062.44,1.062,1.233v1.248h1.57v-1.248c0-.793.475-1.233,1.062-1.233V7.2345" style="fill:none; stroke:#231f20; stroke-linecap:round; stroke-width:.643px;"/></svg>