<?xml version="1.0" encoding="UTF-8"?><svg id="Layer_1" xmlns="http://www.w3.org/2000/svg" viewBox="0 0 7.78 25.501"><path d="m3.8905,15.2625c-.417,0-.74-.355-.895-.567-.362-.493-.569-1.202-.569-1.945s.207-1.452.569-1.945c.155-.212.478-.567.895-.567s.739.355.895.567c.361.493.568,1.202.568,1.945s-.207,1.452-.568,1.945c-.156.212-.478.567-.895.567Zm0,7.562c-.417,0-.74-.355-.895-.567-.362-.493-.569-1.202-.569-1.945s.207-1.452.569-1.945c.155-.212.478-.567.895-.567s.739.355.895.567c.361.493.568,1.202.568,1.945s-.207,1.452-.568,1.945c-.156.212-.478.567-.895.567Zm0-15.124c-.417,0-.74-.356-.895-.567-.362-.493-.569-1.202-.569-1.945s.207-1.452.569-1.945c.155-.212.478-.567.895-.567s.739.355.895.567c.361.493.568,1.202.568,1.945s-.207,1.452-.568,1.945c-.156.211-.478.567-.895.567Zm2.767.561c-.258.432-.258.984,0,1.416.501.838.801,1.907.801,3.073,0,1.165-.3,2.235-.801,3.073-.258.432-.258.984,0,1.416.501.838.801,1.907.801,3.073,0,2.688-1.597,4.867-3.5681,4.867S.3215,23.0005.3215,20.3125c0-1.166.3-2.235.801-3.073.258-.432.258-.984,0-1.416-.501-.838-.801-1.908-.801-3.073,0-1.166.3-2.235.801-3.073.258-.432.258-.984,0-1.416-.501-.838-.801-1.907-.801-3.073C.3215,2.5005,1.9185.3215,3.8905.3215s3.5681,2.179,3.5681,4.867c0,1.166-.3,2.235-.801,3.073Z" style="fill:none; stroke:#231f20; stroke-linecap:round; stroke-linejoin:round; stroke-width:.643px;"/></svg>