<?xml version="1.0" encoding="UTF-8"?><svg id="Layer_1" xmlns="http://www.w3.org/2000/svg" xmlns:xlink="http://www.w3.org/1999/xlink" viewBox="0 0 521 521"><defs><clipPath id="clippath"><path d="m279.6369,340.0124v41.3826h24.9445l.7472-6.2074h-18.967v-35.1752h-6.7247Zm31.2094,41.4401h6.7821v-41.3826h-6.7821v41.3826Zm16.3806-41.4401v41.3826h6.7821v-17.9899h16.2082v-5.7476h-16.2082v-11.6101h17.5876l-.6897-5.9775h-23.6801v-.0575Zm31.6117,0v41.3826h24.5422l.6322-5.9775h-18.3923v-12.2998h16.8979v-5.8625h-16.8979v-11.3228h18.3923l-.6322-5.9775h-24.5422v.0575Zm-237.088-40.6929v82.3055h140.4136v-22.9904h-61.0394v-54.9469h-19.6568v54.9469h-39.4859v-59.7175l-20.2315.4023Zm192.4867-12.4723l-12.8171,25.8641h-.115l-12.9321-25.8641h-8.7938v41.3826h6.6672l-.0575-32.7038h.115l14.4265,28.3356h1.0346l14.4265-28.3356h.115l-.0575,32.7038h6.6672v-41.3826h-8.6789Zm41.6125,0l-5.6901,10.633c-1.3794,2.8163-2.9313,5.5177-4.3682,8.219h-.1724c-1.4369-2.7588-2.9888-5.4602-4.4257-8.2765l-5.6901-10.5756h-7.7592l14.5414,24.5997v16.783h6.7821v-16.783l14.5414-24.5997h-7.7592Zm-115.1817-102.4795v65.6375h-118.9176v22.9904h140.4136v-88.6278h-21.496Zm61.6716-32.3589h16.2657c20.4039,0,29.7725,6.7247,29.7725,22.9904,0,15.6909-9.3111,22.588-29.7725,22.588h-16.2657v-45.5784Zm-23.2203-19.4268v140.4136h23.2203v-56.1539h20.8063c30.5197,0,47.9924-15.2886,47.9924-41.8424,0-27.5884-16.8404-42.4172-49.3718-42.4172,0,0-42.6471,0-42.6471,0Zm-27.5309-1.207c-8.1041,0-14.254,5.7476-14.254,13.2769,0,7.9317,6.1499,13.5068,14.254,13.5068,7.9317,0,14.0816-5.5752,14.0816-13.2769s-6.1499-13.5068-14.0816-13.5068Z" style="fill:none;"/></clipPath><linearGradient id="linear-gradient" x1="-100.4838" y1="21.3567" x2="-98.7066" y2="21.3567" gradientTransform="translate(14950.3115 -2895.1701) scale(147.5717)" gradientUnits="userSpaceOnUse"><stop offset="0" stop-color="#d6bb60"/><stop offset=".0055" stop-color="#d6bb60"/><stop offset=".0254" stop-color="#dcc367"/><stop offset=".0936" stop-color="#ecd77a"/><stop offset=".1608" stop-color="#f6e485"/><stop offset=".2253" stop-color="#f9e889"/><stop offset=".4564" stop-color="#e5c465"/><stop offset=".5062" stop-color="#dbba5b"/><stop offset=".6706" stop-color="#be9c3f"/><stop offset=".7641" stop-color="#b39135"/><stop offset=".8286" stop-color="#b79539"/><stop offset=".8967" stop-color="#c4a245"/><stop offset=".966" stop-color="#d8b759"/><stop offset="1" stop-color="#e5c465"/></linearGradient><clipPath id="clippath-1"><path d="m376.8286,132.467v1.4944h5.1154v12.2998h1.7243v-12.2998h5.1154v-1.4944s-11.955,0-11.955,0Zm26.7263,0l-1.6668,2.3565-3.9658,5.5177-3.9658-5.5177-1.6668-2.3565h-1.4944v13.7942h1.7243v-10.9204l1.3219,2.0117,4.0808,5.6901,4.0233-5.6901c.5173-.7472.9771-1.4369,1.3794-2.0117v10.9204h1.7243v-13.7942s-1.4944,0-1.4944,0Z" style="fill:none;"/></clipPath><linearGradient id="linear-gradient-2" x1="-80.8953" y1="8.6982" x2="-79.1191" y2="8.6982" gradientTransform="translate(1662.0853 1.168) scale(15.8879)" gradientUnits="userSpaceOnUse"><stop offset="0" stop-color="#b39135"/><stop offset=".2062" stop-color="#b39135"/><stop offset=".9864" stop-color="#b39135"/><stop offset="1" stop-color="#b39135"/></linearGradient></defs><g id="Layer_2"><rect x=".5" y=".5" width="520" height="520" style="fill:#fff; stroke:#fff;"/></g><g id="Layer_3"><g style="clip-path:url(#clippath);"><rect x="121.7507" y="131.375" width="262.2625" height="250.1925" style="fill:url(#linear-gradient);"/></g><g style="clip-path:url(#clippath-1);"><rect x="376.8286" y="132.467" width="28.2207" height="13.7942" style="fill:url(#linear-gradient-2);"/></g></g></svg>